<svg width="133" height="59" viewBox="0 0 133 59" fill="none" xmlns="http://www.w3.org/2000/svg">
<path d="M30.812 1.69922H32.0425V30H30.812V1.69922ZM3.7417 1.69922H4.97217V30H3.7417V1.69922ZM28.3511 1.69922H29.5815V30H28.3511V1.69922ZM25.8901 1.69922H27.1206V30H25.8901V1.69922ZM23.4292 1.69922H24.6597V30H23.4292V18.9087H12.355V30H11.1245V1.69922H12.355V12.7563H23.4292V1.69922ZM8.66357 1.69922H9.89404V30H8.66357V1.69922ZM6.20264 1.69922H7.43311V30H6.20264V1.69922ZM23.4292 17.6782V16.4478H12.355V17.6782H23.4292ZM23.4292 15.2173V13.9868H12.355V15.2173H23.4292Z" fill="#E8E5EC"/>
<path d="M55.2163 17.5586V1.69922H56.4468V17.5586C56.4468 19.2904 55.7632 20.7715 54.396 22.002C53.0288 23.2324 51.3882 23.8477 49.4741 23.8477C47.5601 23.8477 45.9194 23.2324 44.5522 22.002C43.1851 20.7715 42.5015 19.2904 42.5015 17.5586V1.69922H43.7319V17.5586C43.7319 18.9486 44.2902 20.1392 45.4067 21.1304C46.5347 22.1216 47.8905 22.6172 49.4741 22.6172C51.0578 22.6172 52.4079 22.1216 53.5244 21.1304C54.6523 20.1392 55.2163 18.9486 55.2163 17.5586ZM57.6772 17.5586V1.69922H58.9077V17.5586C58.9077 18.7435 58.6571 19.8771 58.1558 20.9595C57.6545 22.0304 56.9823 22.959 56.1392 23.7451C55.2961 24.5312 54.2935 25.1579 53.1313 25.625C51.9692 26.0807 50.7502 26.3086 49.4741 26.3086C48.1981 26.3086 46.979 26.0807 45.8169 25.625C44.6548 25.1579 43.6522 24.5312 42.8091 23.7451C41.966 22.959 41.2938 22.0304 40.7925 20.9595C40.2912 19.8771 40.0405 18.7435 40.0405 17.5586V1.69922H41.271V17.5586C41.271 18.9144 41.6356 20.1733 42.3647 21.3354C43.1053 22.4862 44.1022 23.3976 45.3555 24.0698C46.6201 24.742 47.993 25.0781 49.4741 25.0781C50.9552 25.0781 52.3224 24.742 53.5757 24.0698C54.8403 23.3976 55.8372 22.4862 56.5664 21.3354C57.307 20.1733 57.6772 18.9144 57.6772 17.5586ZM60.1382 17.5586V1.69922H61.3687V17.5586C61.3687 19.0739 61.0496 20.5265 60.4116 21.9165C59.785 23.2951 58.9419 24.4857 57.8823 25.4883C56.8228 26.4909 55.5581 27.2884 54.0884 27.8809C52.6187 28.4733 51.0806 28.7695 49.4741 28.7695C47.8677 28.7695 46.3296 28.4733 44.8599 27.8809C43.3901 27.2884 42.1255 26.4909 41.0659 25.4883C40.0063 24.4857 39.1576 23.2951 38.5195 21.9165C37.8929 20.5265 37.5796 19.0739 37.5796 17.5586V1.69922H38.8101V17.5586C38.8101 19.3587 39.2886 21.0278 40.2456 22.5659C41.2026 24.0926 42.4958 25.306 44.125 26.2061C45.7656 27.0947 47.5487 27.5391 49.4741 27.5391C51.3996 27.5391 53.1769 27.0947 54.8062 26.2061C56.4468 25.306 57.7456 24.0926 58.7026 22.5659C59.6597 21.0278 60.1382 19.3587 60.1382 17.5586ZM62.5991 17.5586V1.69922H63.8296V17.5586C63.8296 20.0195 63.1859 22.3039 61.8984 24.4116C60.611 26.508 58.8621 28.1714 56.6519 29.4019C54.453 30.6209 52.0604 31.2305 49.4741 31.2305C46.8879 31.2305 44.4896 30.6209 42.2793 29.4019C40.0804 28.1714 38.3372 26.508 37.0498 24.4116C35.7624 22.3039 35.1187 20.0195 35.1187 17.5586V1.69922H36.3491V17.5586C36.3491 19.2334 36.6966 20.8398 37.3916 22.3779C38.0866 23.916 39.0208 25.2433 40.1943 26.3599C41.3678 27.465 42.7635 28.348 44.3813 29.0088C46.0106 29.6696 47.7082 30 49.4741 30C51.2401 30 52.932 29.6696 54.5498 29.0088C56.179 28.348 57.5804 27.465 58.7539 26.3599C59.9274 25.2433 60.8617 23.916 61.5566 22.3779C62.2516 20.8398 62.5991 19.2334 62.5991 17.5586Z" fill="#E8E5EC"/>
<path d="M89.584 15.2173H90.8145V30H89.584V15.2173ZM94.5059 15.2173H95.7363V30H94.5059V15.2173ZM92.0449 15.2173H93.2754V30H92.0449V15.2173ZM88.3535 15.2173V30C86.1888 30.8203 83.9443 31.2305 81.6201 31.2305C79.6035 31.2305 77.6724 30.8602 75.8267 30.1196C73.981 29.3791 72.3574 28.3537 70.9561 27.0435C69.5547 25.7218 68.4325 24.0926 67.5894 22.1558C66.7576 20.2075 66.3418 18.1055 66.3418 15.8496C66.3418 13.7646 66.7463 11.7765 67.5552 9.88525C68.3755 7.98258 69.4692 6.34766 70.8364 4.98047C72.215 3.60189 73.8499 2.50814 75.7412 1.69922C77.6439 0.878906 79.6377 0.46875 81.7227 0.46875C84.3203 0.46875 86.7357 1.07259 88.9688 2.28027C91.2018 3.48796 93.0247 5.12858 94.4375 7.20215L93.4121 7.86865C92.1133 5.96598 90.4328 4.46208 88.3706 3.35693C86.3198 2.25179 84.1038 1.69922 81.7227 1.69922C79.8086 1.69922 77.9743 2.0752 76.2197 2.82715C74.4766 3.56771 72.9727 4.57031 71.708 5.83496C70.4434 7.09961 69.4351 8.60921 68.6831 10.3638C67.9425 12.1069 67.5723 13.9355 67.5723 15.8496C67.5723 17.9118 67.9539 19.8372 68.7173 21.626C69.492 23.4147 70.5174 24.9129 71.7935 26.1206C73.0809 27.3283 74.5734 28.2796 76.271 28.9746C77.9686 29.6582 79.7345 30 81.5688 30C83.4943 30 85.3457 29.6981 87.123 29.0942V27.915C85.4255 28.4847 83.6424 28.7695 81.7739 28.7695C80.4181 28.7695 79.0965 28.5815 77.8091 28.2056C76.533 27.8182 75.3481 27.2542 74.2544 26.5137C73.172 25.7617 72.2207 24.873 71.4004 23.8477C70.5915 22.8109 69.9535 21.6089 69.4863 20.2417C69.0306 18.8631 68.8027 17.3991 68.8027 15.8496C68.8027 13.514 69.3781 11.355 70.5288 9.37256C71.6909 7.39014 73.2632 5.82357 75.2456 4.67285C77.228 3.51074 79.387 2.92969 81.7227 2.92969C83.9102 2.92969 85.9438 3.44238 87.8237 4.46777C89.7036 5.48177 91.236 6.86035 92.4209 8.60352L91.3955 9.27002C90.3245 7.69775 88.9346 6.45589 87.2256 5.54443C85.528 4.62158 83.6937 4.16016 81.7227 4.16016C80.139 4.16016 78.6237 4.46777 77.1768 5.08301C75.7298 5.69824 74.4823 6.52995 73.4341 7.57812C72.3973 8.61491 71.5713 9.85677 70.9561 11.3037C70.3408 12.7507 70.0332 14.266 70.0332 15.8496C70.0332 17.2738 70.2383 18.6125 70.6484 19.8657C71.07 21.1076 71.6453 22.1956 72.3745 23.1299C73.1151 24.0527 73.9753 24.8503 74.9551 25.5225C75.9349 26.1833 77.0002 26.6846 78.1509 27.0264C79.313 27.3682 80.5036 27.5391 81.7227 27.5391C83.6139 27.5391 85.4141 27.2201 87.123 26.582V25.3516C85.4368 26.001 83.6766 26.3257 81.8423 26.3257C80.4523 26.3257 79.125 26.0921 77.8604 25.625C76.5957 25.1465 75.4678 24.4743 74.4766 23.6084C73.4967 22.7425 72.7163 21.6374 72.1353 20.293C71.5542 18.9486 71.2637 17.4674 71.2637 15.8496C71.2637 13.9583 71.7308 12.2095 72.665 10.603C73.5993 8.99658 74.8696 7.72624 76.4761 6.79199C78.0825 5.85775 79.8314 5.39062 81.7227 5.39062C83.4886 5.39062 85.1292 5.80078 86.6445 6.62109C88.1712 7.44141 89.4131 8.55794 90.3701 9.9707L89.3447 10.6372C88.5016 9.40674 87.4079 8.43262 86.0635 7.71484C84.7305 6.98568 83.2835 6.62109 81.7227 6.62109C80.0479 6.62109 78.5041 7.03695 77.0913 7.86865C75.6785 8.68896 74.5563 9.8055 73.7246 11.2183C72.9043 12.631 72.4941 14.1748 72.4941 15.8496C72.4941 17.0117 72.6593 18.0941 72.9897 19.0967C73.3201 20.0993 73.7759 20.9652 74.3569 21.6943C74.938 22.4235 75.6159 23.0444 76.3906 23.5571C77.1768 24.0698 78.0199 24.4572 78.9199 24.7192C79.82 24.9699 80.7542 25.0952 81.7227 25.0952C83.6481 25.0952 85.4482 24.7135 87.123 23.9502V22.771C85.5052 23.4888 83.7563 23.8477 81.8765 23.8477C80.7941 23.8477 79.7744 23.6825 78.8174 23.3521C77.8604 23.0216 76.9945 22.5374 76.2197 21.8994C75.4564 21.2614 74.8468 20.424 74.3911 19.3872C73.9468 18.339 73.7246 17.1598 73.7246 15.8496C73.7246 14.7673 73.9354 13.7362 74.3569 12.7563C74.7785 11.7651 75.3481 10.9106 76.0659 10.1929C76.7837 9.4751 77.6325 8.90544 78.6123 8.48389C79.6035 8.06234 80.6403 7.85156 81.7227 7.85156C83.0785 7.85156 84.3374 8.17057 85.4995 8.80859C86.6616 9.43522 87.6073 10.2897 88.3364 11.3721L87.3281 12.0386C86.7129 11.1271 85.9097 10.4093 84.9185 9.88525C83.9386 9.34977 82.8734 9.08203 81.7227 9.08203C79.8542 9.08203 78.2591 9.74284 76.9375 11.0645C75.6159 12.3861 74.9551 13.9811 74.9551 15.8496C74.9551 17.0003 75.1431 18.02 75.519 18.9087C75.895 19.786 76.4077 20.4924 77.0571 21.0278C77.7179 21.5519 78.4471 21.9507 79.2446 22.2241C80.0535 22.4862 80.9194 22.6172 81.8423 22.6172C83.7336 22.6172 85.4938 22.2241 87.123 21.438V15.2173H88.3535Z" fill="#E8E5EC"/>
<path d="M108.725 11.0645C107.403 12.3861 106.742 13.9811 106.742 15.8496C106.742 17.7181 107.403 19.3132 108.725 20.6348C110.046 21.9564 111.641 22.6172 113.51 22.6172C115.378 22.6172 116.973 21.9564 118.295 20.6348C119.617 19.3132 120.277 17.7181 120.277 15.8496C120.277 13.9811 119.617 12.3861 118.295 11.0645C116.973 9.74284 115.378 9.08203 113.51 9.08203C111.641 9.08203 110.046 9.74284 108.725 11.0645ZM106.144 18.96C105.722 17.9688 105.512 16.932 105.512 15.8496C105.512 14.7673 105.722 13.7362 106.144 12.7563C106.566 11.7651 107.135 10.9106 107.853 10.1929C108.571 9.4751 109.42 8.90544 110.399 8.48389C111.391 8.06234 112.427 7.85156 113.51 7.85156C114.592 7.85156 115.623 8.06234 116.603 8.48389C117.594 8.90544 118.449 9.4751 119.167 10.1929C119.884 10.9106 120.454 11.7651 120.875 12.7563C121.297 13.7362 121.508 14.7673 121.508 15.8496C121.508 16.932 121.297 17.9688 120.875 18.96C120.454 19.9398 119.884 20.7886 119.167 21.5063C118.449 22.2241 117.594 22.7938 116.603 23.2153C115.623 23.6369 114.592 23.8477 113.51 23.8477C112.427 23.8477 111.391 23.6369 110.399 23.2153C109.42 22.7938 108.571 22.2241 107.853 21.5063C107.135 20.7886 106.566 19.9398 106.144 18.96ZM105.512 11.2183C104.691 12.631 104.281 14.1748 104.281 15.8496C104.281 17.5244 104.691 19.0682 105.512 20.481C106.343 21.8937 107.466 23.016 108.878 23.8477C110.291 24.668 111.835 25.0781 113.51 25.0781C115.185 25.0781 116.728 24.668 118.141 23.8477C119.554 23.016 120.67 21.8937 121.491 20.481C122.322 19.0682 122.738 17.5244 122.738 15.8496C122.738 14.1748 122.322 12.631 121.491 11.2183C120.67 9.8055 119.554 8.68896 118.141 7.86865C116.728 7.03695 115.185 6.62109 113.51 6.62109C111.835 6.62109 110.291 7.03695 108.878 7.86865C107.466 8.68896 106.343 9.8055 105.512 11.2183ZM104.452 21.0962C103.518 19.4897 103.051 17.7409 103.051 15.8496C103.051 13.9583 103.518 12.2095 104.452 10.603C105.386 8.99658 106.657 7.72624 108.263 6.79199C109.87 5.85775 111.618 5.39062 113.51 5.39062C115.401 5.39062 117.15 5.85775 118.756 6.79199C120.363 7.72624 121.633 8.99658 122.567 10.603C123.502 12.2095 123.969 13.9583 123.969 15.8496C123.969 17.7409 123.502 19.4897 122.567 21.0962C121.633 22.7026 120.363 23.973 118.756 24.9072C117.15 25.8415 115.401 26.3086 113.51 26.3086C111.618 26.3086 109.87 25.8415 108.263 24.9072C106.657 23.973 105.386 22.7026 104.452 21.0962ZM102.743 11.3037C102.128 12.7507 101.82 14.266 101.82 15.8496C101.82 17.4333 102.128 18.9486 102.743 20.3955C103.358 21.8424 104.184 23.09 105.221 24.1382C106.269 25.175 107.517 26.001 108.964 26.6162C110.411 27.2314 111.926 27.5391 113.51 27.5391C115.093 27.5391 116.609 27.2314 118.056 26.6162C119.503 26.001 120.744 25.175 121.781 24.1382C122.829 23.09 123.661 21.8424 124.276 20.3955C124.892 18.9486 125.199 17.4333 125.199 15.8496C125.199 14.266 124.892 12.7507 124.276 11.3037C123.661 9.85677 122.829 8.61491 121.781 7.57812C120.744 6.52995 119.503 5.69824 118.056 5.08301C116.609 4.46777 115.093 4.16016 113.51 4.16016C111.926 4.16016 110.411 4.46777 108.964 5.08301C107.517 5.69824 106.269 6.52995 105.221 7.57812C104.184 8.61491 103.358 9.85677 102.743 11.3037ZM102.316 22.3267C101.165 20.3442 100.59 18.1852 100.59 15.8496C100.59 13.514 101.165 11.355 102.316 9.37256C103.478 7.39014 105.05 5.82357 107.033 4.67285C109.015 3.51074 111.174 2.92969 113.51 2.92969C115.845 2.92969 118.004 3.51074 119.987 4.67285C121.969 5.82357 123.536 7.39014 124.687 9.37256C125.849 11.355 126.43 13.514 126.43 15.8496C126.43 18.1852 125.849 20.3442 124.687 22.3267C123.536 24.3091 121.969 25.8813 119.987 27.0435C118.004 28.1942 115.845 28.7695 113.51 28.7695C111.174 28.7695 109.015 28.1942 107.033 27.0435C105.05 25.8813 103.478 24.3091 102.316 22.3267ZM100.47 10.3638C99.7297 12.1069 99.3594 13.9355 99.3594 15.8496C99.3594 17.7637 99.7297 19.598 100.47 21.3525C101.222 23.0957 102.23 24.5996 103.495 25.8643C104.76 27.1289 106.264 28.1372 108.007 28.8892C109.761 29.6297 111.596 30 113.51 30C115.424 30 117.252 29.6297 118.996 28.8892C120.75 28.1372 122.26 27.1289 123.524 25.8643C124.789 24.5996 125.792 23.0957 126.532 21.3525C127.284 19.598 127.66 17.7637 127.66 15.8496C127.66 13.9355 127.284 12.1069 126.532 10.3638C125.792 8.60921 124.789 7.09961 123.524 5.83496C122.26 4.57031 120.75 3.56771 118.996 2.82715C117.252 2.0752 115.424 1.69922 113.51 1.69922C111.596 1.69922 109.761 2.0752 108.007 2.82715C106.264 3.56771 104.76 4.57031 103.495 5.83496C102.23 7.09961 101.222 8.60921 100.47 10.3638ZM99.3423 21.8311C98.5334 19.9284 98.1289 17.9346 98.1289 15.8496C98.1289 13.7646 98.5334 11.7765 99.3423 9.88525C100.163 7.98258 101.256 6.34766 102.624 4.98047C104.002 3.60189 105.637 2.50814 107.528 1.69922C109.431 0.878906 111.425 0.46875 113.51 0.46875C115.595 0.46875 117.583 0.878906 119.474 1.69922C121.377 2.50814 123.012 3.60189 124.379 4.98047C125.757 6.34766 126.851 7.98258 127.66 9.88525C128.48 11.7765 128.891 13.7646 128.891 15.8496C128.891 17.9346 128.48 19.9284 127.66 21.8311C126.851 23.7223 125.757 25.3573 124.379 26.7358C123.012 28.103 121.377 29.1911 119.474 30C117.583 30.8203 115.595 31.2305 113.51 31.2305C111.425 31.2305 109.431 30.8203 107.528 30C105.637 29.1911 104.002 28.103 102.624 26.7358C101.256 25.3573 100.163 23.7223 99.3423 21.8311Z" fill="#E8E5EC"/>
<path d="M17.4219 41.125H18.2656V58H17.4219V41.125ZM0.535156 41.125H1.37891V58H0.535156V41.125ZM15.7344 41.125H16.5781V58H15.7344V41.125ZM14.0469 41.125H14.8906V58H14.0469V41.125ZM12.3594 41.125H13.2031V58H12.3594V51.25H6.44141V58H5.59766V41.125H6.44141V47.0312H12.3594V41.125ZM3.91016 41.125H4.75391V58H3.91016V41.125ZM2.22266 41.125H3.06641V58H2.22266V41.125ZM12.3594 50.4062V49.5625H6.44141V50.4062H12.3594ZM12.3594 48.7188V47.875H6.44141V48.7188H12.3594Z" fill="#E8E5EC"/>
<path d="M32.457 49.6797C32.457 48.6797 32.1484 47.9062 31.5312 47.3594C30.9141 46.8125 30.0977 46.5391 29.082 46.5391C28.2227 46.5391 27.4844 46.8359 26.8672 47.4297C26.25 48.0234 25.9414 48.7344 25.9414 49.5625C25.9414 50.0312 26.0039 50.4531 26.1289 50.8281C26.2539 51.1953 26.4219 51.5039 26.6328 51.7539C26.8516 51.9961 27.1094 52.1992 27.4062 52.3633C27.7031 52.5195 28.0117 52.6328 28.332 52.7031C28.6602 52.7734 29.0078 52.8086 29.375 52.8086C30.2656 52.8086 31.0781 52.5898 31.8125 52.1523V52.9961C31.0547 53.3945 30.2383 53.5938 29.3633 53.5938C28.8008 53.5938 28.2695 53.5195 27.7695 53.3711C27.2773 53.2148 26.8281 52.9844 26.4219 52.6797C26.0156 52.3672 25.6914 51.9453 25.4492 51.4141C25.2148 50.875 25.0977 50.2578 25.0977 49.5625C25.0977 48.4844 25.4766 47.5703 26.2344 46.8203C26.9922 46.0703 27.9414 45.6953 29.082 45.6953C30.3398 45.6953 31.3555 46.0508 32.1289 46.7617C32.9102 47.4648 33.3008 48.4375 33.3008 49.6797V58H32.457V49.6797ZM34.9883 49.6797V58H34.1445V49.6797C34.1445 48.2031 33.6719 47.0312 32.7266 46.1641C31.7812 45.2891 30.5664 44.8516 29.082 44.8516C27.707 44.8516 26.5586 45.3086 25.6367 46.2227C24.7148 47.1367 24.2539 48.25 24.2539 49.5625C24.2539 50.3594 24.3906 51.0742 24.6641 51.707C24.9453 52.3398 25.3242 52.8477 25.8008 53.2305C26.2773 53.6133 26.8086 53.9062 27.3945 54.1094C27.9883 54.3047 28.6133 54.4023 29.2695 54.4023C30.1602 54.4023 31.0078 54.1953 31.8125 53.7812V54.6719C30.9688 55.0234 30.1172 55.1992 29.2578 55.1992C28.4844 55.1992 27.75 55.082 27.0547 54.8477C26.3594 54.6055 25.7383 54.2578 25.1914 53.8047C24.6445 53.3438 24.2109 52.75 23.8906 52.0234C23.5703 51.2891 23.4102 50.4688 23.4102 49.5625C23.4102 48.0234 23.9531 46.7148 25.0391 45.6367C26.1328 44.5508 27.4805 44.0078 29.082 44.0078C30.207 44.0078 31.2148 44.2383 32.1055 44.6992C32.9961 45.1523 33.6992 45.8125 34.2148 46.6797C34.7305 47.5469 34.9883 48.5469 34.9883 49.6797ZM36.6758 49.6797V58H35.832V49.6797C35.832 48.3906 35.5352 47.25 34.9414 46.2578C34.3555 45.2578 33.5508 44.4922 32.5273 43.9609C31.5039 43.4297 30.3555 43.1641 29.082 43.1641C27.8711 43.1641 26.7656 43.4531 25.7656 44.0312C24.7656 44.6016 23.9805 45.375 23.4102 46.3516C22.8477 47.3281 22.5664 48.3984 22.5664 49.5625C22.5664 50.5625 22.75 51.4766 23.1172 52.3047C23.4844 53.125 23.9766 53.8008 24.5938 54.332C25.2188 54.8633 25.9258 55.2773 26.7148 55.5742C27.5117 55.8633 28.3438 56.0078 29.2109 56.0078C30.0938 56.0078 30.9609 55.8242 31.8125 55.457V56.3125C30.9219 56.6484 30.0469 56.8164 29.1875 56.8164C27.8359 56.8164 26.5938 56.5117 25.4609 55.9023C24.3281 55.293 23.4219 54.4297 22.7422 53.3125C22.0625 52.1953 21.7227 50.9453 21.7227 49.5625C21.7227 48.5781 21.9102 47.6406 22.2852 46.75C22.668 45.8594 23.1836 45.0898 23.832 44.4414C24.4805 43.793 25.2617 43.2773 26.1758 42.8945C27.0898 42.5117 28.0586 42.3203 29.082 42.3203C30.5117 42.3203 31.8008 42.625 32.9492 43.2344C34.1055 43.8438 35.0156 44.7109 35.6797 45.8359C36.3438 46.9609 36.6758 48.2422 36.6758 49.6797ZM38.3633 49.6797V58H37.5195V49.6797C37.5195 48.0859 37.1484 46.6641 36.4062 45.4141C35.6641 44.1562 34.6523 43.1875 33.3711 42.5078C32.0898 41.8203 30.6602 41.4766 29.082 41.4766C27.5664 41.4766 26.1797 41.8398 24.9219 42.5664C23.6641 43.293 22.6758 44.2773 21.957 45.5195C21.2383 46.7539 20.8789 48.1016 20.8789 49.5625C20.8789 50.5234 21.0312 51.4375 21.3359 52.3047C21.6484 53.1641 22.0703 53.918 22.6016 54.5664C23.1406 55.207 23.7578 55.7617 24.4531 56.2305C25.1562 56.6992 25.9102 57.0547 26.7148 57.2969C27.5273 57.5391 28.3516 57.6602 29.1875 57.6602C30.1094 57.6602 30.9844 57.4844 31.8125 57.1328V58C30.9453 58.3047 30.0547 58.457 29.1406 58.457C28.1953 58.457 27.2734 58.3242 26.375 58.0586C25.4844 57.793 24.6562 57.4023 23.8906 56.8867C23.1328 56.3633 22.4648 55.75 21.8867 55.0469C21.3086 54.3359 20.8555 53.5078 20.5273 52.5625C20.1992 51.6172 20.0352 50.6172 20.0352 49.5625C20.0352 48.3516 20.2617 47.1992 20.7148 46.1055C21.1758 45.0039 21.8008 44.0547 22.5898 43.2578C23.3867 42.4531 24.3477 41.8164 25.4727 41.3477C26.6055 40.8711 27.8086 40.6328 29.082 40.6328C30.3789 40.6328 31.5977 40.8516 32.7383 41.2891C33.8789 41.7266 34.8633 42.3359 35.6914 43.1172C36.5195 43.8906 37.1719 44.8438 37.6484 45.9766C38.125 47.1094 38.3633 48.3438 38.3633 49.6797Z" fill="#E8E5EC"/>
<path d="M53.7617 51.1914L52.918 49.6562V41.125H53.7617V51.1914ZM55.4492 54.1094L54.6055 52.6797V41.125H55.4492V54.1094ZM43.8242 47.9336L44.668 49.4688V58H43.8242V47.9336ZM42.1367 44.8984L42.9805 46.4453V58H42.1367V44.8984ZM42.4297 41.125H43.4141L53.1875 58H52.2031L42.4297 41.125ZM44.4219 41.125H45.418L55.1797 58H54.1719L44.4219 41.125ZM46.4023 41.125H47.3867L56.293 56.5352V41.125H57.1367V58H56.1406L46.4023 41.125ZM41.293 42.5781V58H40.4492V41.125H41.457L51.1953 58H50.2227L41.293 42.5781Z" fill="#E8E5EC"/>
<path d="M64.4023 52.9375V46.1875C64.4023 46.1875 65.9609 46.1875 69.0781 46.1875C69.9453 46.1875 70.6875 46.5156 71.3047 47.1719C71.9297 47.8281 72.2422 48.6172 72.2422 49.5391C72.2422 50.4922 71.9336 51.2969 71.3164 51.9531C70.6992 52.6094 69.9531 52.9375 69.0781 52.9375H64.4023ZM65.2461 52.0938H69.0781C69.7109 52.0938 70.25 51.8477 70.6953 51.3555C71.1484 50.8633 71.375 50.2578 71.375 49.5391C71.375 48.8516 71.1484 48.2617 70.6953 47.7695C70.25 47.2773 69.7109 47.0312 69.0781 47.0312H65.2461V52.0938ZM63.5586 53.7812H69.0781C70.1875 53.7812 71.1367 53.3711 71.9258 52.5508C72.7148 51.7227 73.1094 50.7188 73.1094 49.5391C73.1094 48.3828 72.7109 47.3945 71.9141 46.5742C71.125 45.7539 70.1797 45.3438 69.0781 45.3438H63.5586V53.7812ZM62.7148 54.625V44.5H69.0781C70.4141 44.5 71.5625 44.9961 72.5234 45.9883C73.4922 46.9727 73.9766 48.1562 73.9766 49.5391C73.9766 50.9531 73.4961 52.1562 72.5352 53.1484C71.5742 54.1328 70.4219 54.625 69.0781 54.625H62.7148ZM61.8711 55.4688H69.0781C70.1094 55.4688 71.0664 55.207 71.9492 54.6836C72.832 54.1602 73.5352 53.4414 74.0586 52.5273C74.582 51.6133 74.8438 50.6172 74.8438 49.5391C74.8438 48.4844 74.582 47.5039 74.0586 46.5977C73.5352 45.6914 72.8281 44.9766 71.9375 44.4531C71.0547 43.9219 70.1016 43.6562 69.0781 43.6562H61.8711V55.4688ZM61.0273 56.3125V42.8125H69.0781C70.2578 42.8125 71.3555 43.1133 72.3711 43.7148C73.3945 44.3164 74.207 45.1367 74.8086 46.1758C75.4102 47.207 75.7109 48.3281 75.7109 49.5391C75.7109 50.7656 75.4102 51.9023 74.8086 52.9492C74.207 53.9883 73.3945 54.8086 72.3711 55.4102C71.3555 56.0117 70.2578 56.3125 69.0781 56.3125H61.0273ZM60.1836 57.1562H69.0781C70.4141 57.1562 71.6562 56.8203 72.8047 56.1484C73.9531 55.4688 74.8672 54.543 75.5469 53.3711C76.2344 52.1992 76.5781 50.9219 76.5781 49.5391C76.5781 48.1797 76.2344 46.918 75.5469 45.7539C74.8672 44.582 73.9492 43.6602 72.793 42.9883C71.6445 42.3086 70.4062 41.9688 69.0781 41.9688H60.1836V57.1562ZM69.0781 58H59.3398V41.125H69.0781C70.5625 41.125 71.9453 41.5039 73.2266 42.2617C74.5156 43.0117 75.5391 44.0352 76.2969 45.332C77.0625 46.6211 77.4453 48.0234 77.4453 49.5391C77.4453 50.6875 77.2188 51.7852 76.7656 52.832C76.3203 53.8789 75.7188 54.7812 74.9609 55.5391C74.2109 56.2891 73.3203 56.8867 72.2891 57.332C71.2578 57.7773 70.1875 58 69.0781 58Z" fill="#E8E5EC"/>
<path d="M87.0898 49.9727H85.7539C84.1133 49.9727 82.8516 49.6406 81.9688 48.9766C81.0859 48.3047 80.6445 47.3828 80.6445 46.2109C80.6445 45.1172 81.1641 44.207 82.2031 43.4805C83.2422 42.7461 84.6992 42.3789 86.5742 42.3789C87.8242 42.3789 88.9883 42.5508 90.0664 42.8945C91.1523 43.2383 92.0547 43.7227 92.7734 44.3477L92.1172 44.875C91.4766 44.3516 90.6719 43.9453 89.7031 43.6562C88.7344 43.3672 87.6914 43.2227 86.5742 43.2227C84.9258 43.2227 83.6641 43.5039 82.7891 44.0664C81.9219 44.6289 81.4883 45.3438 81.4883 46.2109C81.4883 47.1484 81.8438 47.8711 82.5547 48.3789C83.2734 48.8789 84.3398 49.1289 85.7539 49.1289H87.043C88.707 49.1289 89.9805 49.4648 90.8633 50.1367C91.7539 50.8008 92.1992 51.7188 92.1992 52.8906C92.1992 53.9844 91.6797 54.8984 90.6406 55.6328C89.6016 56.3594 88.1445 56.7227 86.2695 56.7227C85.0195 56.7227 83.8516 56.5508 82.7656 56.207C81.6875 55.8633 80.7891 55.3789 80.0703 54.7539L80.7266 54.2266C81.3672 54.75 82.1719 55.1562 83.1406 55.4453C84.1094 55.7344 85.1523 55.8789 86.2695 55.8789C87.918 55.8789 89.1758 55.5977 90.043 55.0352C90.918 54.4727 91.3555 53.7578 91.3555 52.8906C91.3555 51.9531 90.9961 51.2344 90.2773 50.7344C89.5664 50.2266 88.5039 49.9727 87.0898 49.9727ZM87.0898 51.6602H85.7539C83.582 51.6602 81.9062 51.168 80.7266 50.1836C79.5469 49.1914 78.957 47.8672 78.957 46.2109C78.957 45.4531 79.125 44.7422 79.4609 44.0781C79.7969 43.4141 80.2773 42.832 80.9023 42.332C81.5352 41.8242 82.3398 41.4258 83.3164 41.1367C84.293 40.8398 85.3789 40.6914 86.5742 40.6914C88.082 40.6914 89.4922 40.9219 90.8047 41.3828C92.1172 41.8359 93.2109 42.4727 94.0859 43.293L93.4062 43.7969C92.6094 43.0781 91.6133 42.5234 90.418 42.1328C89.2227 41.7344 87.9414 41.5352 86.5742 41.5352C84.4648 41.5352 82.8086 41.9805 81.6055 42.8711C80.4023 43.7617 79.8008 44.875 79.8008 46.2109C79.8008 47.625 80.3164 48.7461 81.3477 49.5742C82.3789 50.4023 83.8477 50.8164 85.7539 50.8164H87.043C89.3555 50.8164 90.5117 51.5078 90.5117 52.8906C90.5117 53.5156 90.1562 54.0312 89.4453 54.4375C88.7422 54.8359 87.6836 55.0352 86.2695 55.0352C85.2773 55.0352 84.3555 54.9219 83.5039 54.6953C82.6523 54.4609 81.9492 54.1289 81.3945 53.6992L82.0625 53.1836C83.0391 53.8555 84.4414 54.1914 86.2695 54.1914C87.4414 54.1914 88.3008 54.0703 88.8477 53.8281C89.3945 53.5859 89.668 53.2734 89.668 52.8906C89.668 52.4453 89.4766 52.1289 89.0938 51.9414C88.7109 51.7539 88.043 51.6602 87.0898 51.6602ZM87.0898 48.2852H85.7539C83.4727 48.2852 82.332 47.5938 82.332 46.2109C82.332 45.5859 82.6836 45.0742 83.3867 44.6758C84.0977 44.2695 85.1602 44.0664 86.5742 44.0664C87.5664 44.0664 88.4883 44.1836 89.3398 44.418C90.1914 44.6445 90.8945 44.9727 91.4492 45.4023L90.7812 45.918C89.8047 45.2461 88.4023 44.9102 86.5742 44.9102C85.4023 44.9102 84.543 45.0312 83.9961 45.2734C83.4492 45.5156 83.1758 45.8281 83.1758 46.2109C83.1758 46.6562 83.3672 46.9727 83.75 47.1602C84.1328 47.3477 84.8008 47.4414 85.7539 47.4414H87.0898C89.2617 47.4414 90.9375 47.9375 92.1172 48.9297C93.2969 49.9141 93.8867 51.2344 93.8867 52.8906C93.8867 53.6484 93.7188 54.3594 93.3828 55.0234C93.0469 55.6875 92.5625 56.2734 91.9297 56.7812C91.3047 57.2812 90.5039 57.6797 89.5273 57.9766C88.5508 58.2656 87.4648 58.4102 86.2695 58.4102C84.7617 58.4102 83.3516 58.1836 82.0391 57.7305C80.7266 57.2695 79.6328 56.6289 78.7578 55.8086L79.4375 55.3047C80.2344 56.0234 81.2305 56.582 82.4258 56.9805C83.6211 57.3711 84.9023 57.5664 86.2695 57.5664C88.3789 57.5664 90.0352 57.1211 91.2383 56.2305C92.4414 55.3398 93.043 54.2266 93.043 52.8906C93.043 51.4766 92.5273 50.3555 91.4961 49.5273C90.4648 48.6992 88.9961 48.2852 87.0898 48.2852Z" fill="#E8E5EC"/>
<path d="M102.184 47.1836C101.527 47.8398 101.199 48.6328 101.199 49.5625C101.199 50.4922 101.527 51.2891 102.184 51.9531C102.848 52.6094 103.645 52.9375 104.574 52.9375C105.504 52.9375 106.297 52.6094 106.953 51.9531C107.617 51.2891 107.949 50.4922 107.949 49.5625C107.949 48.6328 107.617 47.8398 106.953 47.1836C106.297 46.5195 105.504 46.1875 104.574 46.1875C103.645 46.1875 102.848 46.5195 102.184 47.1836ZM101.586 52.5508C100.766 51.7227 100.355 50.7266 100.355 49.5625C100.355 48.3984 100.766 47.4062 101.586 46.5859C102.414 45.7578 103.41 45.3438 104.574 45.3438C105.738 45.3438 106.73 45.7578 107.551 46.5859C108.379 47.4062 108.793 48.3984 108.793 49.5625C108.793 50.7266 108.379 51.7227 107.551 52.5508C106.73 53.3711 105.738 53.7812 104.574 53.7812C103.41 53.7812 102.414 53.3711 101.586 52.5508ZM100.988 45.9883C100.004 46.9805 99.5117 48.1719 99.5117 49.5625C99.5117 50.9531 100.004 52.1445 100.988 53.1367C101.98 54.1289 103.176 54.625 104.574 54.625C105.973 54.625 107.164 54.1289 108.148 53.1367C109.141 52.1445 109.637 50.9531 109.637 49.5625C109.637 48.1719 109.141 46.9805 108.148 45.9883C107.164 44.9961 105.973 44.5 104.574 44.5C103.176 44.5 101.98 44.9961 100.988 45.9883ZM99.4531 52.5273C98.9297 51.6211 98.668 50.6328 98.668 49.5625C98.668 48.4922 98.9297 47.5039 99.4531 46.5977C99.9844 45.6914 100.703 44.9766 101.609 44.4531C102.516 43.9219 103.504 43.6562 104.574 43.6562C105.645 43.6562 106.633 43.9219 107.539 44.4531C108.445 44.9766 109.16 45.6914 109.684 46.5977C110.215 47.5039 110.48 48.4922 110.48 49.5625C110.48 50.6328 110.215 51.6211 109.684 52.5273C109.16 53.4336 108.445 54.1523 107.539 54.6836C106.633 55.207 105.645 55.4688 104.574 55.4688C103.504 55.4688 102.516 55.207 101.609 54.6836C100.703 54.1523 99.9844 53.4336 99.4531 52.5273ZM98.3516 46.9492C98 47.7773 97.8242 48.6484 97.8242 49.5625C97.8242 50.4766 98 51.3516 98.3516 52.1875C98.7109 53.0156 99.1914 53.7344 99.793 54.3438C100.402 54.9453 101.121 55.4258 101.949 55.7852C102.785 56.1367 103.66 56.3125 104.574 56.3125C105.488 56.3125 106.359 56.1367 107.188 55.7852C108.023 55.4258 108.742 54.9453 109.344 54.3438C109.953 53.7344 110.434 53.0156 110.785 52.1875C111.145 51.3516 111.324 50.4766 111.324 49.5625C111.324 48.6484 111.145 47.7773 110.785 46.9492C110.434 46.1133 109.953 45.3945 109.344 44.793C108.742 44.1836 108.023 43.7031 107.188 43.3516C106.359 42.9922 105.488 42.8125 104.574 42.8125C103.66 42.8125 102.785 42.9922 101.949 43.3516C101.121 43.7031 100.402 44.1836 99.793 44.793C99.1914 45.3945 98.7109 46.1133 98.3516 46.9492ZM97.5781 52.5156C97.1797 51.5781 96.9805 50.5938 96.9805 49.5625C96.9805 48.5312 97.1797 47.5469 97.5781 46.6094C97.9844 45.6719 98.5234 44.8672 99.1953 44.1953C99.875 43.5156 100.684 42.9766 101.621 42.5781C102.559 42.1719 103.543 41.9688 104.574 41.9688C105.605 41.9688 106.59 42.1719 107.527 42.5781C108.465 42.9766 109.27 43.5156 109.941 44.1953C110.621 44.8672 111.16 45.6719 111.559 46.6094C111.965 47.5469 112.168 48.5312 112.168 49.5625C112.168 50.5938 111.965 51.5781 111.559 52.5156C111.16 53.4531 110.621 54.2617 109.941 54.9414C109.27 55.6133 108.465 56.1523 107.527 56.5586C106.59 56.957 105.605 57.1562 104.574 57.1562C103.543 57.1562 102.559 56.957 101.621 56.5586C100.684 56.1523 99.875 55.6133 99.1953 54.9414C98.5234 54.2617 97.9844 53.4531 97.5781 52.5156ZM96.8047 46.293C96.3594 47.332 96.1367 48.4219 96.1367 49.5625C96.1367 50.7031 96.3594 51.7969 96.8047 52.8438C97.25 53.8828 97.8477 54.7812 98.5977 55.5391C99.3555 56.2891 100.254 56.8867 101.293 57.332C102.34 57.7773 103.434 58 104.574 58C105.715 58 106.805 57.7773 107.844 57.332C108.891 56.8867 109.789 56.2891 110.539 55.5391C111.297 54.7812 111.898 53.8828 112.344 52.8438C112.789 51.7969 113.012 50.7031 113.012 49.5625C113.012 48.4219 112.789 47.332 112.344 46.293C111.898 45.2461 111.297 44.3477 110.539 43.5977C109.789 42.8398 108.891 42.2383 107.844 41.793C106.805 41.3477 105.715 41.125 104.574 41.125C103.434 41.125 102.34 41.3477 101.293 41.793C100.254 42.2383 99.3555 42.8398 98.5977 43.5977C97.8477 44.3477 97.25 45.2461 96.8047 46.293ZM96.0312 53.1719C95.5391 52.0234 95.293 50.8203 95.293 49.5625C95.293 48.3047 95.5391 47.1055 96.0312 45.9648C96.5234 44.8164 97.1836 43.8281 98.0117 43C98.8398 42.1719 99.8242 41.5117 100.965 41.0195C102.113 40.5273 103.316 40.2812 104.574 40.2812C105.832 40.2812 107.031 40.5273 108.172 41.0195C109.32 41.5117 110.309 42.1719 111.137 43C111.965 43.8281 112.625 44.8164 113.117 45.9648C113.609 47.1055 113.855 48.3047 113.855 49.5625C113.855 50.8203 113.609 52.0234 113.117 53.1719C112.625 54.3125 111.965 55.2969 111.137 56.125C110.309 56.9531 109.32 57.6133 108.172 58.1055C107.031 58.5977 105.832 58.8438 104.574 58.8438C103.316 58.8438 102.113 58.5977 100.965 58.1055C99.8242 57.6133 98.8398 56.9531 98.0117 56.125C97.1836 55.2969 96.5234 54.3125 96.0312 53.1719Z" fill="#E8E5EC"/>
<path d="M129.066 51.1914L128.223 49.6562V41.125H129.066V51.1914ZM130.754 54.1094L129.91 52.6797V41.125H130.754V54.1094ZM119.129 47.9336L119.973 49.4688V58H119.129V47.9336ZM117.441 44.8984L118.285 46.4453V58H117.441V44.8984ZM117.734 41.125H118.719L128.492 58H127.508L117.734 41.125ZM119.727 41.125H120.723L130.484 58H129.477L119.727 41.125ZM121.707 41.125H122.691L131.598 56.5352V41.125H132.441V58H131.445L121.707 41.125ZM116.598 42.5781V58H115.754V41.125H116.762L126.5 58H125.527L116.598 42.5781Z" fill="#E8E5EC"/>
</svg>
